<?xml version="1.0" encoding="UTF-8" standalone="no"?>
<!DOCTYPE svg PUBLIC "-//W3C//DTD SVG 1.1//EN"
 "http://www.w3.org/Graphics/SVG/1.1/DTD/svg11.dtd">
<!-- Generated by graphviz version 2.38.0 (20140413.2041)
 -->
<!-- Title: dependency&#45;cruiser output Pages: 1 -->
<svg width="199pt" height="136pt"
 viewBox="0.00 0.00 199.00 136.00" xmlns="http://www.w3.org/2000/svg" xmlns:xlink="http://www.w3.org/1999/xlink">
<g id="graph0" class="graph" transform="scale(1 1) rotate(0) translate(4 132)">
<title>dependency&#45;cruiser output</title>
<g id="clust1" class="cluster"><title>cluster_src</title>
<path fill="#ffffff" stroke="black" stroke-width="2" d="M33,-68C33,-68 171,-68 171,-68 177,-68 183,-74 183,-80 183,-80 183,-108 183,-108 183,-114 177,-120 171,-120 171,-120 33,-120 33,-120 27,-120 21,-114 21,-108 21,-108 21,-80 21,-80 21,-74 27,-68 33,-68"/>
<text text-anchor="middle" x="102" y="-108.8" font-family="Helvetica,sans-Serif" font-weight="bold" font-size="9.00">src</text>
</g>
<g id="clust2" class="cluster"><title>cluster_test</title>
<path fill="#ffffff" stroke="black" stroke-width="2" d="M20,-8C20,-8 92,-8 92,-8 98,-8 104,-14 104,-20 104,-20 104,-48 104,-48 104,-54 98,-60 92,-60 92,-60 20,-60 20,-60 14,-60 8,-54 8,-48 8,-48 8,-20 8,-20 8,-14 14,-8 20,-8"/>
<text text-anchor="middle" x="56" y="-48.8" font-family="Helvetica,sans-Serif" font-weight="bold" font-size="9.00">test</text>
</g>
<!-- src/app.js -->
<g id="node1" class="node"><title>src/app.js</title>
<g id="a_node1"><a xlink:href="src/app.js" xlink:title="app.js">
<path fill="#ffffcc" stroke="black" d="M77,-94C77,-94 35,-94 35,-94 32,-94 29,-91 29,-88 29,-88 29,-82 29,-82 29,-79 32,-76 35,-76 35,-76 77,-76 77,-76 80,-76 83,-79 83,-82 83,-82 83,-88 83,-88 83,-91 80,-94 77,-94"/>
<text text-anchor="middle" x="56" y="-82.8" font-family="Helvetica,sans-Serif" font-size="9.00">app.js</text>
</a>
</g>
</g>
<!-- src/statistics.js -->
<g id="node2" class="node"><title>src/statistics.js</title>
<g id="a_node2"><a xlink:href="src/statistics.js" xlink:title="statistics.js">
<path fill="#ffffcc" stroke="black" d="M169,-94C169,-94 118,-94 118,-94 115,-94 112,-91 112,-88 112,-88 112,-82 112,-82 112,-79 115,-76 118,-76 118,-76 169,-76 169,-76 172,-76 175,-79 175,-82 175,-82 175,-88 175,-88 175,-91 172,-94 169,-94"/>
<text text-anchor="middle" x="143.5" y="-82.8" font-family="Helvetica,sans-Serif" font-size="9.00">statistics.js</text>
</a>
</g>
</g>
<!-- src/app.js&#45;&gt;src/statistics.js -->
<g id="edge1" class="edge"><title>src/app.js&#45;&gt;src/statistics.js</title>
<path fill="none" stroke="#999999" d="M83.1174,-85C90.4592,-85 98.5765,-85 106.39,-85"/>
<polygon fill="#999999" stroke="#999999" points="106.738,-86.7501 111.738,-85 106.738,-83.2501 106.738,-86.7501"/>
</g>
<!-- test/statistics.test.js -->
<g id="node3" class="node"><title>test/statistics.test.js</title>
<g id="a_node3"><a xlink:href="test/statistics.test.js" xlink:title="statistics.test.js">
<path fill="#ffffcc" stroke="black" d="M90,-34C90,-34 22,-34 22,-34 19,-34 16,-31 16,-28 16,-28 16,-22 16,-22 16,-19 19,-16 22,-16 22,-16 90,-16 90,-16 93,-16 96,-19 96,-22 96,-22 96,-28 96,-28 96,-31 93,-34 90,-34"/>
<text text-anchor="middle" x="56" y="-22.8" font-family="Helvetica,sans-Serif" font-size="9.00">statistics.test.js</text>
</a>
</g>
</g>
<!-- test/statistics.test.js&#45;&gt;src/statistics.js -->
<g id="edge2" class="edge"><title>test/statistics.test.js&#45;&gt;src/statistics.js</title>
<path fill="none" stroke="#999999" d="M69.9856,-34.1127C84.7601,-44.4808 108.951,-61.4566 125.287,-72.9209"/>
<polygon fill="#999999" stroke="#999999" points="124.574,-74.5584 129.672,-75.9981 126.585,-71.6935 124.574,-74.5584"/>
</g>
</g>
</svg>
